<?xml version="1.0" standalone="no"?>
<!DOCTYPE svg PUBLIC "-//W3C//DTD SVG 20010904//EN"
 "http://www.w3.org/TR/2001/REC-SVG-20010904/DTD/svg10.dtd">
<svg version="1.0" xmlns="http://www.w3.org/2000/svg"
 width="128.000000pt" height="128.000000pt" viewBox="0 0 128.000000 128.000000"
 preserveAspectRatio="xMidYMid meet">

<g transform="translate(0.000000,128.000000) scale(0.100000,-0.100000)"
fill="#000000" stroke="none">
<path d="M0 1168 c0 -87 3 -109 12 -100 9 9 134 12 499 12 430 0 489 -2 503
-16 13 -12 16 -41 16 -145 l0 -129 -110 0 c-121 0 -165 -12 -213 -57 -55 -53
-53 -141 4 -194 45 -42 109 -59 221 -59 l98 0 0 -121 c0 -66 -5 -129 -10 -140
-10 -18 -27 -19 -503 -19 -370 0 -496 3 -505 12 -9 9 -12 -13 -12 -100 l0
-112 640 0 640 0 0 270 c0 267 0 270 -19 251 -29 -29 -70 -33 -273 -29 -162 3
-188 5 -222 24 -109 57 -113 186 -7 241 42 22 54 23 256 23 200 0 214 -1 239
-21 l26 -20 0 270 0 271 -640 0 -640 0 0 -112z m1184 -104 c13 -12 16 -41 16
-145 l0 -129 -65 0 -65 0 0 129 c0 71 -3 136 -6 145 -5 13 3 16 49 16 37 0 61
-5 71 -16z m16 -705 c0 -66 -5 -129 -10 -140 -9 -15 -22 -19 -68 -19 l-57 0 3
140 3 140 65 0 64 0 0 -121z"/>
<path d="M838 689 c-49 -28 -45 -83 8 -105 46 -19 100 1 110 42 13 51 -67 93
-118 63z m83 -9 c22 -12 26 -59 7 -78 -7 -7 -28 -12 -48 -12 -41 0 -60 14 -60
46 0 46 54 69 101 44z"/>
</g>
</svg>
